<?xml version="1.0" encoding="UTF-8" standalone="no"?>
<!DOCTYPE svg PUBLIC "-//W3C//DTD SVG 1.1//EN"
 "http://www.w3.org/Graphics/SVG/1.1/DTD/svg11.dtd">
<!-- Generated by graphviz version 2.40.1 (20161225.0304)
 -->
<!-- Title: G Pages: 1 -->
<svg width="488pt" height="273pt"
 viewBox="0.00 0.00 487.94 273.00" xmlns="http://www.w3.org/2000/svg" xmlns:xlink="http://www.w3.org/1999/xlink">
<g id="graph0" class="graph" transform="scale(1 1) rotate(0) translate(4 269)">
<title>G</title>
<polygon fill="#ffffff" stroke="transparent" points="-4,4 -4,-269 483.9449,-269 483.9449,4 -4,4"/>
<g id="clust1" class="cluster">
<title>cluster_Global</title>
<path fill="none" stroke="#c0c0c0" d="M173.5191,-8C173.5191,-8 459.9449,-8 459.9449,-8 465.9449,-8 471.9449,-14 471.9449,-20 471.9449,-20 471.9449,-245 471.9449,-245 471.9449,-251 465.9449,-257 459.9449,-257 459.9449,-257 173.5191,-257 173.5191,-257 167.5191,-257 161.5191,-251 161.5191,-245 161.5191,-245 161.5191,-20 161.5191,-20 161.5191,-14 167.5191,-8 173.5191,-8"/>
<text text-anchor="middle" x="316.732" y="-244.2" font-family="Times,serif" font-size="11.00" fill="#c0c0c0">Global</text>
</g>
<g id="clust2" class="cluster">
<title>cluster_\MPorcheron</title>
<path fill="none" stroke="#c0c0c0" d="M181.5191,-16C181.5191,-16 451.9449,-16 451.9449,-16 457.9449,-16 463.9449,-22 463.9449,-28 463.9449,-28 463.9449,-218 463.9449,-218 463.9449,-224 457.9449,-230 451.9449,-230 451.9449,-230 181.5191,-230 181.5191,-230 175.5191,-230 169.5191,-224 169.5191,-218 169.5191,-218 169.5191,-28 169.5191,-28 169.5191,-22 175.5191,-16 181.5191,-16"/>
<text text-anchor="middle" x="316.732" y="-217.2" font-family="Times,serif" font-size="11.00" fill="#c0c0c0">MPorcheron</text>
</g>
<g id="clust3" class="cluster">
<title>cluster_\MPorcheron\FreeBusyCal</title>
<path fill="none" stroke="#c0c0c0" d="M189.5191,-24C189.5191,-24 443.9449,-24 443.9449,-24 449.9449,-24 455.9449,-30 455.9449,-36 455.9449,-36 455.9449,-191 455.9449,-191 455.9449,-197 449.9449,-203 443.9449,-203 443.9449,-203 189.5191,-203 189.5191,-203 183.5191,-203 177.5191,-197 177.5191,-191 177.5191,-191 177.5191,-36 177.5191,-36 177.5191,-30 183.5191,-24 189.5191,-24"/>
<text text-anchor="middle" x="316.732" y="-190.2" font-family="Times,serif" font-size="11.00" fill="#c0c0c0">FreeBusyCal</text>
</g>
<!-- \\MPorcheron\\FreeBusyCal\\FreeBusyCalendar -->
<g id="node1" class="node">
<title>\\MPorcheron\\FreeBusyCal\\FreeBusyCalendar</title>
<polygon fill="none" stroke="#000000" points="447.7541,-122 326.5185,-122 326.5185,-86 447.7541,-86 447.7541,-122"/>
<text text-anchor="middle" x="387.1363" y="-100.7" font-family="Courier,monospace" font-size="11.00" fill="#000000">FreeBusyCalendar</text>
</g>
<!-- \\ArrayObject -->
<g id="node5" class="node">
<title>\\ArrayObject</title>
<ellipse fill="none" stroke="#000000" cx="56.7596" cy="-131" rx="56.5201" ry="18"/>
<text text-anchor="middle" x="56.7596" y="-126.8" font-family="Times,serif" font-size="14.00" fill="#c0c0c0">\ArrayObject</text>
</g>
<!-- \\MPorcheron\\FreeBusyCal\\FreeBusyCalendar&#45;&gt;\\ArrayObject -->
<g id="edge1" class="edge">
<title>\\MPorcheron\\FreeBusyCal\\FreeBusyCalendar&#45;&gt;\\ArrayObject</title>
<path fill="none" stroke="#000000" d="M326.1551,-108.9837C268.1689,-113.7226 181.2271,-120.8279 121.9029,-125.6762"/>
<polygon fill="none" stroke="#000000" points="121.5768,-122.1911 111.8952,-126.494 122.1471,-129.1678 121.5768,-122.1911"/>
</g>
<!-- \\MPorcheron\\FreeBusyCal\\CalDAVCalendar -->
<g id="node2" class="node">
<title>\\MPorcheron\\FreeBusyCal\\CalDAVCalendar</title>
<polygon fill="none" stroke="#000000" points="441.5521,-176 332.7205,-176 332.7205,-140 441.5521,-140 441.5521,-176"/>
<text text-anchor="middle" x="387.1363" y="-154.7" font-family="Courier,monospace" font-size="11.00" fill="#000000">CalDAVCalendar</text>
</g>
<!-- \\MPorcheron\\FreeBusyCal\\Calendar -->
<g id="node3" class="node">
<title>\\MPorcheron\\FreeBusyCal\\Calendar</title>
<polygon fill="none" stroke="#000000" points="254.2323,-174 185.6146,-174 185.6146,-138 254.2323,-138 254.2323,-174"/>
<text text-anchor="middle" x="219.9234" y="-152.7" font-family="Courier,monospace" font-size="11.00" fill="#000000">Calendar</text>
</g>
<!-- \\MPorcheron\\FreeBusyCal\\CalDAVCalendar&#45;&gt;\\MPorcheron\\FreeBusyCal\\Calendar -->
<g id="edge2" class="edge">
<title>\\MPorcheron\\FreeBusyCal\\CalDAVCalendar&#45;&gt;\\MPorcheron\\FreeBusyCal\\Calendar</title>
<path fill="none" stroke="#000000" d="M332.8471,-157.3507C310.7392,-157.0862 285.4999,-156.7843 264.4977,-156.5331"/>
<polygon fill="none" stroke="#000000" points="264.2922,-153.0305 254.251,-156.4106 264.2084,-160.03 264.2922,-153.0305"/>
</g>
<!-- \\MPorcheron\\FreeBusyCal\\Calendar&#45;&gt;\\ArrayObject -->
<g id="edge3" class="edge">
<title>\\MPorcheron\\FreeBusyCal\\Calendar&#45;&gt;\\ArrayObject</title>
<path fill="none" stroke="#000000" d="M185.3206,-150.6981C165.7637,-147.7016 140.7431,-143.868 117.9813,-140.3804"/>
<polygon fill="none" stroke="#000000" points="118.4645,-136.9137 108.0498,-138.8587 117.4043,-143.8329 118.4645,-136.9137"/>
</g>
<!-- \\MPorcheron\\FreeBusyCal\\Generator -->
<g id="node4" class="node">
<title>\\MPorcheron\\FreeBusyCal\\Generator</title>
<polygon fill="none" stroke="#000000" points="425.0471,-68 349.2255,-68 349.2255,-32 425.0471,-32 425.0471,-68"/>
<text text-anchor="middle" x="387.1363" y="-46.7" font-family="Courier,monospace" font-size="11.00" fill="#000000">Generator</text>
</g>
</g>
</svg>
