<?xml version="1.0" encoding="UTF-8" standalone="no"?>
<!DOCTYPE svg PUBLIC "-//W3C//DTD SVG 1.1//EN"
 "http://www.w3.org/Graphics/SVG/1.1/DTD/svg11.dtd">
<!-- Generated by graphviz version 2.38.0 (20140413.2041)
 -->
<!-- Title: G Pages: 1 -->
<svg width="331pt" height="203pt"
 viewBox="0.00 0.00 331.14 203.00" xmlns="http://www.w3.org/2000/svg" xmlns:xlink="http://www.w3.org/1999/xlink">
<g id="graph0" class="graph" transform="scale(1 1) rotate(0) translate(4 199)">
<title>G</title>
<polygon fill="white" stroke="none" points="-4,4 -4,-199 327.136,-199 327.136,4 -4,4"/>
<g id="clust1" class="cluster"><title>cluster_Global</title>
<path fill="none" stroke="gray" d="M189.519,-8C189.519,-8 303.136,-8 303.136,-8 309.136,-8 315.136,-14 315.136,-20 315.136,-20 315.136,-175 315.136,-175 315.136,-181 309.136,-187 303.136,-187 303.136,-187 189.519,-187 189.519,-187 183.519,-187 177.519,-181 177.519,-175 177.519,-175 177.519,-20 177.519,-20 177.519,-14 183.519,-8 189.519,-8"/>
<text text-anchor="middle" x="246.328" y="-174.2" font-family="Times,serif" font-size="11.00" fill="gray">Global</text>
</g>
<!-- \\UserCalendar -->
<g id="node1" class="node"><title>\\UserCalendar</title>
<polygon fill="none" stroke="black" points="294.041,-160 198.615,-160 198.615,-124 294.041,-124 294.041,-160"/>
<text text-anchor="middle" x="246.328" y="-138.7" font-family="Courier,monospace" font-size="11.00">UserCalendar</text>
</g>
<!-- \\ArrayObject -->
<g id="node4" class="node"><title>\\ArrayObject</title>
<ellipse fill="none" stroke="black" cx="56.7596" cy="-115" rx="56.5201" ry="18"/>
<text text-anchor="middle" x="56.7596" y="-110.8" font-family="Times,serif" font-size="14.00" fill="gray">\ArrayObject</text>
</g>
<!-- \\UserCalendar&#45;&gt;\\ArrayObject -->
<g id="edge1" class="edge"><title>\\UserCalendar&#45;&gt;\\ArrayObject</title>
<path fill="none" stroke="black" d="M198.48,-135.256C174.34,-131.782 144.611,-127.502 118.706,-123.773"/>
<polygon fill="none" stroke="black" points="119.011,-120.281 108.615,-122.32 118.014,-127.21 119.011,-120.281"/>
</g>
<!-- \\FreeBusyCalendar -->
<g id="node2" class="node"><title>\\FreeBusyCalendar</title>
<polygon fill="none" stroke="black" points="306.945,-106 185.71,-106 185.71,-70 306.945,-70 306.945,-106"/>
<text text-anchor="middle" x="246.328" y="-84.7" font-family="Courier,monospace" font-size="11.00">FreeBusyCalendar</text>
</g>
<!-- \\FreeBusyCalendar&#45;&gt;\\ArrayObject -->
<g id="edge2" class="edge"><title>\\FreeBusyCalendar&#45;&gt;\\ArrayObject</title>
<path fill="none" stroke="black" d="M185.464,-96.6172C164.177,-99.6815 140.194,-103.134 118.808,-106.212"/>
<polygon fill="none" stroke="black" points="118.264,-102.754 108.864,-107.644 119.261,-109.683 118.264,-102.754"/>
</g>
<!-- \\Generator -->
<g id="node3" class="node"><title>\\Generator</title>
<polygon fill="none" stroke="black" points="284.238,-52 208.417,-52 208.417,-16 284.238,-16 284.238,-52"/>
<text text-anchor="middle" x="246.328" y="-30.7" font-family="Courier,monospace" font-size="11.00">Generator</text>
</g>
</g>
</svg>
