<?xml version="1.0" encoding="UTF-8" standalone="no"?>
<!DOCTYPE svg PUBLIC "-//W3C//DTD SVG 1.1//EN"
 "http://www.w3.org/Graphics/SVG/1.1/DTD/svg11.dtd">
<!-- Generated by graphviz version 2.38.0 (20140413.2041)
 -->
<!-- Title: G Pages: 1 -->
<svg width="301pt" height="219pt"
 viewBox="0.00 0.00 300.93 219.00" xmlns="http://www.w3.org/2000/svg" xmlns:xlink="http://www.w3.org/1999/xlink">
<g id="graph0" class="graph" transform="scale(1 1) rotate(0) translate(4 215)">
<title>G</title>
<polygon fill="white" stroke="none" points="-4,4 -4,-215 296.929,-215 296.929,4 -4,4"/>
<g id="clust1" class="cluster"><title>cluster_Global</title>
<path fill="none" stroke="gray" d="M173.519,-8C173.519,-8 272.929,-8 272.929,-8 278.929,-8 284.929,-14 284.929,-20 284.929,-20 284.929,-191 284.929,-191 284.929,-197 278.929,-203 272.929,-203 272.929,-203 173.519,-203 173.519,-203 167.519,-203 161.519,-197 161.519,-191 161.519,-191 161.519,-20 161.519,-20 161.519,-14 167.519,-8 173.519,-8"/>
<text text-anchor="middle" x="223.224" y="-190.2" font-family="Times,serif" font-size="11.00" fill="gray">Global</text>
</g>
<g id="clust2" class="cluster"><title>cluster_\Porcheron</title>
<path fill="none" stroke="gray" d="M181.519,-16C181.519,-16 264.929,-16 264.929,-16 270.929,-16 276.929,-22 276.929,-28 276.929,-28 276.929,-164 276.929,-164 276.929,-170 270.929,-176 264.929,-176 264.929,-176 181.519,-176 181.519,-176 175.519,-176 169.519,-170 169.519,-164 169.519,-164 169.519,-28 169.519,-28 169.519,-22 175.519,-16 181.519,-16"/>
<text text-anchor="middle" x="223.224" y="-163.2" font-family="Times,serif" font-size="11.00" fill="gray">Porcheron</text>
</g>
<g id="clust3" class="cluster"><title>cluster_\Porcheron\FreeBusyCal</title>
<path fill="none" stroke="gray" d="M189.519,-24C189.519,-24 256.929,-24 256.929,-24 262.929,-24 268.929,-30 268.929,-36 268.929,-36 268.929,-137 268.929,-137 268.929,-143 262.929,-149 256.929,-149 256.929,-149 189.519,-149 189.519,-149 183.519,-149 177.519,-143 177.519,-137 177.519,-137 177.519,-36 177.519,-36 177.519,-30 183.519,-24 189.519,-24"/>
<text text-anchor="middle" x="223.224" y="-136.2" font-family="Times,serif" font-size="11.00" fill="gray">FreeBusyCal</text>
</g>
<!-- \\Porcheron\\FreeBusyCal\\Calendar -->
<g id="node1" class="node"><title>\\Porcheron\\FreeBusyCal\\Calendar</title>
<polygon fill="none" stroke="black" points="257.533,-122 188.915,-122 188.915,-86 257.533,-86 257.533,-122"/>
<text text-anchor="middle" x="223.224" y="-100.7" font-family="Courier,monospace" font-size="11.00">Calendar</text>
</g>
<!-- \\ArrayObject -->
<g id="node3" class="node"><title>\\ArrayObject</title>
<ellipse fill="none" stroke="black" cx="56.7596" cy="-104" rx="56.5201" ry="18"/>
<text text-anchor="middle" x="56.7596" y="-99.8" font-family="Times,serif" font-size="14.00" fill="gray">\ArrayObject</text>
</g>
<!-- \\Porcheron\\FreeBusyCal\\Calendar&#45;&gt;\\ArrayObject -->
<g id="edge1" class="edge"><title>\\Porcheron\\FreeBusyCal\\Calendar&#45;&gt;\\ArrayObject</title>
<path fill="none" stroke="black" d="M188.545,-104C169.883,-104 146.022,-104 123.803,-104"/>
<polygon fill="none" stroke="black" points="123.735,-100.5 113.735,-104 123.735,-107.5 123.735,-100.5"/>
</g>
<!-- \\Porcheron\\FreeBusyCal\\Generator -->
<g id="node2" class="node"><title>\\Porcheron\\FreeBusyCal\\Generator</title>
<polygon fill="none" stroke="black" points="261.135,-68 185.313,-68 185.313,-32 261.135,-32 261.135,-68"/>
<text text-anchor="middle" x="223.224" y="-46.7" font-family="Courier,monospace" font-size="11.00">Generator</text>
</g>
</g>
</svg>
